<?xml version="1.0" encoding="UTF-8" standalone="no"?>
<svg width="220px" height="29px" viewBox="0 0 220 29" version="1.1" xmlns="http://www.w3.org/2000/svg" xmlns:xlink="http://www.w3.org/1999/xlink">
    <!-- Generator: Sketch 3.6.1 (26313) - http://www.bohemiancoding.com/sketch -->
    <title>logo</title>
    <desc>Created with Sketch.</desc>
    <defs></defs>
    <g id="Page-1" stroke="none" stroke-width="1" fill="none" fill-rule="evenodd">
        <g id="logo">
            <g id="Page-1">
                <g>
                    <g id="Desktop-HD">
                        <g id="header">
                            <g id="logo" transform="translate(0.118644, 0.000000)">
                                <g id="Group" transform="translate(49.805725, 0.000000)" fill="#0B0B0B">
                                    <path d="M12.4523991,20.6416957 C11.9245266,21.5129565 11.2322559,22.1396087 10.375587,22.5241739 C9.5189181,22.9087391 8.5530785,23.1003913 7.47549946,23.1003913 C6.24893453,23.1003913 5.1713555,22.8658696 4.241478,22.3993478 C3.3116005,21.9328261 2.54612123,21.2998696 1.94247148,20.5004783 C1.34010608,19.7023478 0.88544222,18.7844348 0.57976426,17.7454783 C0.27280193,16.7090435 0.11996295,15.6284783 0.11996295,14.5088261 C0.11996295,13.4307826 0.27280193,12.3880435 0.57976426,11.3818696 C0.88544222,10.3756957 1.34010608,9.48930435 1.94247148,8.72143478 C2.54483687,7.95482609 3.30004125,7.33573913 4.20936897,6.86921739 C5.11741233,6.40269565 6.17444158,6.16817391 7.37917237,6.16817391 C8.35143379,6.16817391 9.2761738,6.37117391 10.1533925,6.77465217 C11.0306112,7.1793913 11.7228819,7.77704348 12.2302046,8.56508696 L12.2944226,8.56508696 L12.2944226,0.474086957 L16.7961086,0.474086957 L16.7961086,22.6956522 L12.5153328,22.6956522 L12.5153328,20.6416957 L12.4523991,20.6416957 L12.4523991,20.6416957 L12.4523991,20.6416957 Z M12.2623136,12.6893913 C12.1351618,12.0778696 11.9181048,11.5382174 11.6124268,11.0704348 C11.3054645,10.603913 10.9098813,10.2256522 10.4231084,9.93565217 C9.9363355,9.64565217 9.3236952,9.4993913 8.58390317,9.4993913 C7.84411112,9.4993913 7.21991159,9.6443913 6.71258892,9.93565217 C6.20526625,10.2256522 5.79812375,10.6102174 5.49244579,11.0868261 C5.18548347,11.5646957 4.96328898,12.1093913 4.8271467,12.720913 C4.68972005,13.3324348 4.62036455,13.9704348 4.62036455,14.6361739 C4.62036455,15.2577826 4.6948575,15.8806522 4.84255903,16.5022609 C4.99026057,17.1251304 5.22786739,17.6811739 5.55537949,18.1666087 C5.88289159,18.6545652 6.29517153,19.0492174 6.79221931,19.3493043 C7.28798273,19.6493913 7.88649504,19.7994348 8.58390317,19.7994348 C9.3236952,19.7994348 9.9414729,19.6556957 10.4385207,19.3631739 C10.9355685,19.0744348 11.3311517,18.6848261 11.6278392,18.1968696 C11.9245266,17.708913 12.1351618,17.1541304 12.2623136,16.5312609 C12.3894654,15.9096522 12.4523991,15.2666087 12.4523991,14.6021304 C12.4523991,13.9401739 12.388181,13.3021739 12.2623136,12.6893913 L12.2623136,12.6893913 L12.2623136,12.6893913 Z" id="Shape"></path>
                                    <path d="M19.9967367,11.5533478 C20.0609547,10.516913 20.3242488,9.65447826 20.7891875,8.96982609 C21.2541263,8.28517391 21.8462168,7.73543478 22.5641747,7.3206087 C23.2821326,6.90578261 24.0912801,6.61073913 24.9890486,6.43295652 C25.8868171,6.25643478 26.7910073,6.16817391 27.7003351,6.16817391 C28.5248949,6.16817391 29.3597297,6.22617391 30.2048394,6.33965217 C31.049949,6.4543913 31.8218501,6.67882609 32.5192582,7.00917391 C33.2166663,7.34204348 33.7882071,7.80226087 34.2313117,8.39486957 C34.6757006,8.98621739 34.8978951,9.76921739 34.8978951,10.7438696 L34.8978951,19.1160435 C34.8978951,19.8423043 34.9402791,20.5383043 35.0250469,21.2015217 C35.1085304,21.8647391 35.2575163,22.3640435 35.4694359,22.6956522 L30.9035318,22.6956522 C30.818764,22.4472609 30.7494085,22.1938261 30.6980341,21.934087 C30.6440909,21.6743478 30.6081288,21.4095652 30.587579,21.1397391 C29.8683367,21.866 29.0232271,22.3741304 28.0509657,22.6653913 C27.0787042,22.9553913 26.0846087,23.1016522 25.0712477,23.1016522 C24.2890717,23.1016522 23.5595546,23.0083478 22.8839806,22.8204783 C22.2071223,22.6338696 21.6163161,22.3438696 21.1089934,21.9492174 C20.6016708,21.5558261 20.2048032,21.0577826 19.919675,20.455087 C19.6345468,19.8536522 19.4919827,19.1374783 19.4919827,18.3078261 C19.4919827,17.3949565 19.6550966,16.6434783 19.9826087,16.0521304 C20.3101208,15.4595217 20.7326756,14.9879565 21.2502732,14.6361739 C21.7678707,14.2831304 22.3599612,14.0183478 23.0252603,13.8418261 C23.6918438,13.6653043 24.3622803,13.5253478 25.0378543,13.4219565 C25.7134283,13.3185652 26.3800118,13.2353478 27.035036,13.1735652 C27.6900602,13.1105217 28.2718758,13.0172174 28.7779141,12.8923913 C29.2852368,12.7675652 29.6872418,12.5872609 29.9826449,12.3476957 C30.2780479,12.1081304 30.4154746,11.7613913 30.3949248,11.3049565 C30.3949248,10.8283478 30.3152944,10.4488261 30.1560336,10.168913 C29.9980572,9.889 29.7861376,9.67086957 29.5215592,9.51578261 C29.2569808,9.35943478 28.9513028,9.25604348 28.6019566,9.20434783 C28.2526104,9.15265217 27.8788613,9.12617391 27.4768562,9.12617391 C26.5893626,9.12617391 25.8919545,9.31152174 25.3846318,9.686 C24.8773092,10.0592174 24.5819061,10.6808261 24.4971383,11.552087 L19.9967367,11.552087 L19.9967367,11.5533478 L19.9967367,11.5533478 Z M30.3962092,14.8215217 C30.2061237,14.9879565 29.9685169,15.1165652 29.6821044,15.2111304 C29.3956918,15.3056957 29.0900139,15.3826087 28.7625018,15.4456522 C28.4349896,15.5074348 28.0920652,15.5603913 27.7324441,15.6007391 C27.3728229,15.6423478 27.0132018,15.6940435 26.654865,15.7558261 C26.3170781,15.8188696 25.9844285,15.902087 25.6569164,16.0054783 C25.3294043,16.1088696 25.0429918,16.2488261 24.8002475,16.4253478 C24.5575032,16.6018696 24.360996,16.8250435 24.2132944,17.0936087 C24.0655929,17.3646957 23.9910999,17.7063913 23.9910999,18.1199565 C23.9910999,18.5146087 24.0655929,18.8462174 24.2132944,19.1160435 C24.360996,19.3858696 24.5613563,19.5989565 24.8156598,19.7540435 C25.0699633,19.9103913 25.3653664,20.0188261 25.7031534,20.0818696 C26.0409404,20.1436522 26.3902866,20.1751739 26.7486234,20.1751739 C27.636117,20.1751739 28.3232502,20.0301739 28.8087388,19.738913 C29.2942273,19.448913 29.6538484,19.100913 29.8863178,18.6961739 C30.1187872,18.2914348 30.2613513,17.8816522 30.3140101,17.4668261 C30.3666689,17.052 30.3936405,16.7191304 30.3936405,16.4707391 L30.3936405,14.8215217 L30.3962092,14.8215217 L30.3962092,14.8215217 Z" id="Shape"></path>
                                    <path d="M42.6644272,6.60443478 L42.6644272,9.59269565 L42.7273609,9.59269565 C42.9392805,9.0933913 43.2244087,8.63317391 43.5840298,8.207 C43.943651,7.78208696 44.3559309,7.41895652 44.8208697,7.1176087 C45.2858084,6.81752174 45.7828562,6.58426087 46.3107286,6.41782609 C46.8386011,6.2513913 47.3883077,6.16817391 47.958564,6.16817391 C48.2539671,6.16817391 48.5814792,6.22113043 48.9423847,6.32452174 L48.9423847,10.4324348 C48.7304651,10.392087 48.4774459,10.3542609 48.1807585,10.324 C47.8840711,10.2937391 47.5989429,10.2773478 47.3240896,10.2773478 C46.4995297,10.2773478 45.8021216,10.4122609 45.2318652,10.6808261 C44.6616089,10.951913 44.2018076,11.320087 43.8524613,11.7866087 C43.5031151,12.2531304 43.2552334,12.7978261 43.1075318,13.4206957 C42.9598303,14.0423043 42.8853373,14.7168696 42.8853373,15.4431304 L42.8853373,22.6956522 L38.3836514,22.6956522 L38.3836514,6.60443478 L42.6644272,6.60443478 L42.6644272,6.60443478 L42.6644272,6.60443478 Z" id="Shape"></path>
                                    <path d="M64.8235108,22.6956522 L61.9067265,11.8963043 L61.8437928,11.8963043 L59.0541603,22.6956522 L54.3944979,22.6956522 L49.1954038,6.60443478 L53.9513933,6.60443478 L56.9632203,17.5286087 L57.026154,17.5286087 L59.7528528,6.60443478 L64.127387,6.60443478 L66.9183038,17.4983478 L66.9812375,17.4983478 L69.9930645,6.60443478 L74.6219022,6.60443478 L69.4523485,22.6956522 L64.8235108,22.6956522 L64.8235108,22.6956522 L64.8235108,22.6956522 Z" id="Shape"></path>
                                    <path d="M76.6486242,4.11547826 L76.6486242,0.474086957 L81.1503101,0.474086957 L81.1503101,4.11547826 L76.6486242,4.11547826 L76.6486242,4.11547826 L76.6486242,4.11547826 Z M81.1503101,6.60443478 L81.1503101,22.6956522 L76.6486242,22.6956522 L76.6486242,6.60443478 L81.1503101,6.60443478 L81.1503101,6.60443478 L81.1503101,6.60443478 Z" id="Shape"></path>
                                    <path d="M88.9823447,6.60443478 L88.9823447,8.845 L89.0773874,8.845 C89.6476437,7.91195652 90.3874358,7.23234783 91.2967635,6.80743478 C92.2048069,6.38126087 93.1359687,6.16817391 94.086396,6.16817391 C95.2911268,6.16817391 96.2788005,6.32956522 97.051986,6.65108696 C97.8238871,6.97386957 98.4301055,7.41895652 98.8744945,7.99013043 C99.318883,8.56130435 99.629699,9.25604348 99.810794,10.0756087 C99.990604,10.893913 100.079225,11.8017391 100.079225,12.7978261 L100.079225,22.6956522 L95.5775393,22.6956522 L95.5775393,13.6073043 C95.5775393,12.2796087 95.3669041,11.2885652 94.9443493,10.6366957 C94.5217944,9.98230435 93.7717275,9.65573913 92.6928641,9.65573913 C91.4675835,9.65573913 90.5788056,10.0138261 90.0303834,10.73 C89.4806768,11.4461739 89.2058235,12.6238261 89.2058235,14.2629565 L89.2058235,22.6956522 L84.7041375,22.6956522 L84.7041375,6.60443478 L88.9823447,6.60443478 L88.9823447,6.60443478 L88.9823447,6.60443478 Z" id="Shape"></path>
                                </g>
                                <g id="Group" transform="translate(151.270259, 6.043478)" fill="#131313">
                                    <path d="M2.84537739,3.09782609 C3.27820711,2.44469565 3.81250136,1.9 4.44697579,1.46373913 C5.08016585,1.02747826 5.79940812,0.70595652 6.60213386,0.49917391 C7.40614396,0.2923913 8.23969437,0.18773913 9.1066382,0.18773913 C9.9093639,0.18773913 10.6709901,0.25078261 11.388948,0.37434783 C12.1069059,0.49791304 12.7413803,0.71604348 13.2910869,1.02747826 C13.8407935,1.33891304 14.2787607,1.75878261 14.6062728,2.28834783 C14.9337849,2.81791304 15.0968987,3.48617391 15.0968987,4.29565217 C15.0968987,4.75208696 15.0391025,5.24508696 14.9222256,5.77465217 C14.8066331,6.30421739 14.6948937,6.78713043 14.5895761,7.22086957 L13.5441061,11.6086957 C13.479888,11.9415652 13.3899827,12.3147826 13.2743902,12.7296087 C13.1575133,13.1456957 13.0997171,13.539087 13.0997171,13.9123043 C13.0997171,14.2855217 13.17421,14.5452609 13.3219116,14.6902609 C13.4696131,14.8352609 13.6596986,14.9083913 13.8921679,14.9083913 C14.0193197,14.9083913 14.1618838,14.881913 14.3198602,14.8302174 C14.4778366,14.7785217 14.6204007,14.7331304 14.7475525,14.6915217 L14.3378413,16.6521739 C14.1259217,16.7341304 13.8562058,16.8123043 13.5286937,16.8866957 C13.2011816,16.9585652 12.9211909,16.9951304 12.6887215,16.9951304 C11.9489295,16.9951304 11.388948,16.7984348 11.0087771,16.4037826 C10.6273218,16.0103913 10.4796203,15.4593913 10.5643881,14.7533043 L10.5001701,14.6915217 C9.9299137,15.4379565 9.2222307,16.0091304 8.37712101,16.4025217 C7.53201135,16.795913 6.4120484,16.9938696 5.01723215,16.9938696 C4.31982403,16.9938696 3.66865291,16.9156957 3.06628751,16.7593478 C2.46392212,16.6042609 1.94118711,16.3457826 1.49679814,15.9826522 C1.05240917,15.6195217 0.69920985,15.153 0.43463144,14.5818261 C0.1713374,14.011913 0.03776384,13.3108696 0.03776384,12.4812174 C0.03776384,11.2985217 0.2972048,10.3755652 0.81480236,9.711087 C1.33111555,9.0478696 1.99256156,8.54478261 2.7952873,8.20308696 C3.59801304,7.8613913 4.48550662,7.62686957 5.45776804,7.50204348 C6.43002946,7.37721739 7.37018185,7.27382609 8.27950956,7.1906087 C8.99875183,7.12882609 9.6165296,7.06073913 10.1341271,6.98886957 C10.6504403,6.91573913 11.0794169,6.79721739 11.4172039,6.63078261 C11.7562753,6.46434783 12.004157,6.22730435 12.1621334,5.91586957 C12.3213942,5.60443478 12.4010246,5.17952174 12.4010246,4.6386087 C12.4010246,4.2036087 12.2944226,3.85056522 12.0837874,3.58073913 C11.8718678,3.31091304 11.6085738,3.09782609 11.2913365,2.94273913 C10.9740993,2.78765217 10.6209,2.67795652 10.2291698,2.61617391 C9.8374397,2.55313043 9.4636906,2.52286957 9.1040694,2.52286957 C8.59674678,2.52286957 8.09456155,2.57456522 7.59879814,2.67795652 C7.100466,2.7826087 6.65222394,2.95408696 6.25021889,3.19113043 C5.8494982,3.42943478 5.51042685,3.73204348 5.23685792,4.09391304 C4.96072026,4.45704348 4.78219406,4.89834783 4.69742622,5.41656522 L2.00155209,5.41656522 C2.13127257,4.52513043 2.41254767,3.75221739 2.84537739,3.09782609 L2.84537739,3.09782609 L2.84537739,3.09782609 Z M3.60700357,14.1316957 C4.20936897,14.504913 4.8900804,14.6915217 5.65170658,14.6915217 C7.78631487,14.6915217 9.3172734,13.9854348 10.2484353,12.5745217 C10.6928242,11.9718261 10.9933647,11.3199565 11.1513412,10.6126087 C11.310602,9.9077826 11.4852751,9.1815217 11.6753605,8.43382609 L11.6111425,8.43382609 C11.2309716,8.70365217 10.7493361,8.89530435 10.1688049,9.0100435 C9.5869893,9.1247826 8.96792716,9.2117826 8.31418732,9.2748261 C7.65916311,9.3366087 6.99900146,9.4135217 6.33370237,9.508087 C5.66711891,9.6013913 5.06989096,9.7514348 4.54073415,9.9594783 C4.01286171,10.1662609 3.57874763,10.4613043 3.24096063,10.8458696 C2.90188928,11.2304348 2.72336308,11.7650435 2.70152894,12.4484348 C2.7028133,13.1973913 3.00463818,13.7572174 3.60700357,14.1316957 L3.60700357,14.1316957 L3.60700357,14.1316957 Z" id="Shape"></path>
                                    <path d="M22.5487623,0.56095652 L21.978506,2.86456522 L22.042724,2.86456522 C22.8454498,1.82686957 23.6751471,1.12078261 24.531816,0.74756522 C25.3872006,0.37434783 26.3645994,0.18773913 27.4640126,0.18773913 C28.5197575,0.18773913 29.4444975,0.34913043 30.2369484,0.67065217 C31.0293992,0.99217391 31.7011201,1.44356522 32.2495424,2.02356522 C32.799249,2.60482609 33.2115289,3.30082609 33.4863822,4.10904348 C33.7612355,4.91726087 33.8986621,5.81121739 33.8986621,6.78586957 C33.8986621,8.01017391 33.69188,9.2294348 33.2808844,10.4411304 C32.8686045,11.6553478 32.276514,12.7497826 31.5046129,13.7244348 C30.7327118,14.699087 29.7822845,15.4871304 28.6520467,16.0898261 C27.5205245,16.6925217 26.2361633,16.9926087 24.8002475,16.9926087 C24.3134746,16.9926087 23.8010145,16.951 23.2628672,16.8677826 C22.7234355,16.7845652 22.2173971,16.6332609 21.7396148,16.4163913 C21.2644011,16.1982609 20.8418463,15.9095217 20.4719503,15.5463913 C20.1020543,15.1832609 19.8438977,14.7318696 19.6961961,14.1922174 L19.6332624,14.1922174 L17.8891,22.7812609 L15.2587282,22.7812609 L20.0134334,0.55969565 L22.5487623,0.55969565 L22.5487623,0.56095652 L22.5487623,0.56095652 Z M30.2048394,3.67404348 C29.5382559,2.90743478 28.4658143,2.52286957 26.9875146,2.52286957 C25.9728693,2.52286957 25.0635415,2.7826087 24.2608158,3.30082609 C23.4568057,3.81904348 22.7876535,4.47343478 22.2482218,5.26147826 C21.7087901,6.05078261 21.2977945,6.91195652 21.011382,7.845 C20.7262538,8.77804348 20.5836897,9.6707391 20.5836897,10.5218261 C20.5836897,11.7246957 20.936889,12.7207826 21.6458564,13.5088261 C22.3535394,14.2981304 23.3733222,14.6915217 24.7052048,14.6915217 C25.7827838,14.6915217 26.7229362,14.4481739 27.5256619,13.9602174 C28.3283877,13.4722609 29.005246,12.8443478 29.5549526,12.0764783 C30.1046592,11.3098696 30.5169391,10.4587826 30.7917924,9.5257391 C31.0666457,8.59269565 31.202788,7.67856522 31.202788,6.78713043 C31.202788,5.4796087 30.8701385,4.44191304 30.2048394,3.67404348 L30.2048394,3.67404348 L30.2048394,3.67404348 Z" id="Shape"></path>
                                    <path d="M41.347957,0.56095652 L40.778985,2.86456522 L40.8419187,2.86456522 C41.6446444,1.82686957 42.4743418,1.12078261 43.3310107,0.74756522 C44.1876796,0.37434783 45.1650784,0.18773913 46.2632073,0.18773913 C47.3202365,0.18773913 48.2449766,0.34913043 49.0374274,0.67065217 C49.8298783,0.99217391 50.5015992,1.44356522 51.0500214,2.02356522 C51.599728,2.60482609 52.0107236,3.30082609 52.2868612,4.10904348 C52.5604302,4.91852174 52.6978568,5.81121739 52.6978568,6.78586957 C52.6978568,8.01017391 52.492359,9.2294348 52.0800791,10.4411304 C51.6690835,11.6553478 51.076993,12.7497826 50.3050919,13.7244348 C49.5331908,14.699087 48.5814792,15.4871304 47.4512414,16.0898261 C46.3197192,16.6925217 45.0366423,16.9926087 43.5994422,16.9926087 C43.1126693,16.9926087 42.6014935,16.951 42.0620618,16.8677826 C41.5226301,16.7845652 41.0165918,16.6332609 40.5400938,16.4163913 C40.0635958,16.1995217 39.6423254,15.9095217 39.2724293,15.5463913 C38.9025333,15.1832609 38.6430924,14.7318696 38.4966752,14.1922174 L38.4324571,14.1922174 L36.689579,22.7812609 L34.0579229,22.7812609 L38.812628,0.55969565 L41.347957,0.55969565 L41.347957,0.56095652 L41.347957,0.56095652 Z M49.0053184,3.67404348 C48.3387349,2.90743478 47.2662933,2.52286957 45.7867093,2.52286957 C44.7720639,2.52286957 43.8640206,2.7826087 43.0600105,3.30082609 C42.2572847,3.81904348 41.5868482,4.47343478 41.0474165,5.26147826 C40.5092692,6.05078261 40.0969892,6.91195652 39.811861,7.845 C39.5254485,8.77804348 39.3828844,9.6707391 39.3828844,10.5218261 C39.3828844,11.7246957 39.7360837,12.7207826 40.4450511,13.5088261 C41.1527341,14.2981304 42.1738012,14.6915217 43.5043994,14.6915217 C44.5832628,14.6915217 45.5221309,14.4481739 46.326141,13.9602174 C47.1288667,13.4722609 47.8044407,12.8443478 48.3541473,12.0764783 C48.9038539,11.3098696 49.3161338,10.4587826 49.5909871,9.5257391 C49.8658404,8.59269565 50.003267,7.67856522 50.003267,6.78713043 C50.003267,5.4796087 49.6693331,4.44191304 49.0053184,3.67404348 L49.0053184,3.67404348 L49.0053184,3.67404348 Z" id="Shape"></path>
                                    <path d="M64.6809467,3.22265217 C64.0053727,2.75613043 63.1910877,2.52286957 62.2406604,2.52286957 C61.8399397,2.52286957 61.4263754,2.55313043 61.0038206,2.61617391 C60.5812658,2.67795652 60.2062323,2.78765217 59.8787202,2.94273913 C59.5512081,3.09782609 59.2814922,3.30586957 59.070857,3.56434783 C58.8589374,3.82408696 58.7536198,4.162 58.7536198,4.57682609 C58.7536198,4.95004348 58.8756341,5.27282609 59.1183784,5.5413913 C59.3598383,5.81247826 59.6873504,6.06086957 60.1009147,6.28908696 C60.5131946,6.51856522 60.9781334,6.7303913 61.4957309,6.92708696 C62.0133285,7.12504348 62.5373478,7.32678261 63.0652203,7.53356522 C63.6149269,7.76304348 64.1492211,8.01143478 64.6668187,8.28126087 C65.1844162,8.55108696 65.6442176,8.85621739 66.0449382,9.1991739 C66.4456589,9.5421304 66.7744554,9.9468696 67.0287589,10.4133913 C67.2830624,10.879913 67.4089298,11.4258696 67.4089298,12.0474783 C67.4089298,12.9401739 67.2085695,13.7017391 66.8065644,14.3346957 C66.4045594,14.9676522 65.8869618,15.4808261 65.2524874,15.8754783 C64.6192973,16.2688696 63.9051925,16.555087 63.1127417,16.7316087 C62.3202908,16.9081304 61.5227025,16.9963913 60.7199768,16.9963913 C59.7695495,16.9963913 58.8910464,16.9081304 58.0883207,16.7316087 C57.2843106,16.555087 56.5933243,16.2600435 56.0115087,15.8452174 C55.4309774,15.4303913 54.9698917,14.8743478 54.6333891,14.1808696 C54.2956021,13.4848696 54.1260664,12.619913 54.1260664,11.5809565 L56.7885472,11.5809565 C56.7461633,12.1622174 56.8360685,12.6552174 57.058263,13.0599565 C57.2791732,13.4634348 57.5861355,13.7862174 57.9778656,14.0245217 C58.3683114,14.2628261 58.8216909,14.4343043 59.3405729,14.5376957 C59.8581704,14.6423478 60.4027396,14.6940435 60.9729959,14.6940435 C61.4173849,14.6940435 61.8604895,14.6524348 62.3048785,14.5692174 C62.7492674,14.486 63.1487038,14.3460435 63.5096093,14.148087 C63.8692304,13.9513913 64.159496,13.6979565 64.3816905,13.3865217 C64.603885,13.075087 64.7156244,12.6917826 64.7156244,12.2353478 C64.7156244,11.8419565 64.5884727,11.5040435 64.3341691,11.2228696 C64.08115,10.9429565 63.7536379,10.6895217 63.3516328,10.4613043 C62.9509121,10.233087 62.4898265,10.02 61.9722289,9.8233043 C61.4546314,9.6266087 60.930612,9.4135217 60.4027396,9.1853043 C59.853033,8.97852174 59.3187387,8.74904348 58.8024255,8.50065217 C58.284828,8.251 57.8186048,7.95469565 57.4076093,7.613 C56.9953293,7.27130435 56.6678172,6.8716087 56.4237886,6.41517391 C56.1810443,5.96 56.05903,5.43043478 56.05903,4.82773913 C56.05903,4.08130435 56.2337031,3.41682609 56.581765,2.83556522 C56.9298269,2.25556522 57.3909126,1.77265217 57.9611689,1.38934783 C58.5314253,1.00604348 59.1813121,0.70973913 59.9108292,0.50295652 C60.6403464,0.29617391 61.3852759,0.19152174 62.1456177,0.19152174 C62.9072439,0.19152174 63.6573108,0.27978261 64.3971028,0.45630435 C65.1368949,0.63282609 65.7970565,0.92282609 66.3788721,1.32756522 C66.9594034,1.73104348 67.4294796,2.2606087 67.7891007,2.915 C68.1487219,3.56813043 68.3285324,4.36121739 68.3285324,5.29552174 L65.6339427,5.29552174 C65.6737579,4.38013043 65.357805,3.69043478 64.6809467,3.22265217 L64.6809467,3.22265217 L64.6809467,3.22265217 Z" id="Shape"></path>
                                </g>
                                <g id="darwinapps_1_" transform="translate(0.000000, 6.799119)" fill="#FC2373">
                                    <path d="M33.6566849,0.0453913043 L33.6566849,14.8215217 L39.5249311,14.8215217 L39.5249311,0.0453913043 L33.6566849,0.0453913043 L33.6566849,0.0453913043 L33.6566849,0.0453913043 L33.6566849,0.0453913043 Z M17.1025535,10.1903478 L21.0352675,14.4382174 L32.5136034,4.60091304 L28.5808895,0.353043478 L17.1025535,10.1903478 L17.1025535,10.1903478 L17.1025535,10.1903478 L17.1025535,10.1903478 Z M0.0244028625,8.87526087 L2.38377436,14.0902174 L16.4809227,8.18808696 L14.1215512,2.97313043 L0.0244028625,8.87526087 L0.0244028625,8.87526087 L0.0244028625,8.87526087 L0.0244028625,8.87526087 Z" id="Shape"></path>
                                </g>
                            </g>
                        </g>
                    </g>
                </g>
            </g>
        </g>
    </g>
</svg>